<mxfile host="65bd71144e">
    <diagram id="0-aKbJCN9P8B9yeMF4ft" name="Page-1">
        <mxGraphModel dx="1189" dy="513" grid="1" gridSize="10" guides="1" tooltips="1" connect="1" arrows="1" fold="1" page="1" pageScale="1" pageWidth="850" pageHeight="1100" math="0" shadow="0">
            <root>
                <mxCell id="0"/>
                <mxCell id="1" parent="0"/>
                <mxCell id="2" value="" style="rounded=1;whiteSpace=wrap;html=1;fillColor=#008a00;fontColor=#ffffff;strokeColor=#005700;opacity=60;" vertex="1" parent="1">
                    <mxGeometry x="130" y="120" width="610" height="120" as="geometry"/>
                </mxCell>
                <mxCell id="4" value="" style="rounded=1;whiteSpace=wrap;html=1;fillColor=#0050ef;fontColor=#ffffff;strokeColor=#001DBC;opacity=60;" vertex="1" parent="1">
                    <mxGeometry x="130" y="260" width="610" height="140" as="geometry"/>
                </mxCell>
                <mxCell id="5" value="" style="rounded=1;whiteSpace=wrap;html=1;fillColor=#6a00ff;fontColor=#ffffff;strokeColor=#3700CC;opacity=60;" vertex="1" parent="1">
                    <mxGeometry x="130" y="420" width="610" height="200" as="geometry"/>
                </mxCell>
                <mxCell id="6" value="&lt;font style=&quot;font-size: 24px;&quot;&gt;&lt;b&gt;应用服务&lt;/b&gt;&lt;/font&gt;" style="rounded=1;whiteSpace=wrap;html=1;fillColor=#008a00;strokeColor=#005700;fontColor=#ffffff;" vertex="1" parent="1">
                    <mxGeometry x="140" y="130" width="60" height="100" as="geometry"/>
                </mxCell>
                <mxCell id="7" value="&lt;font style=&quot;font-size: 24px;&quot;&gt;业务服务&lt;/font&gt;" style="rounded=1;whiteSpace=wrap;html=1;fillColor=#0050ef;fontColor=#ffffff;strokeColor=#001DBC;" vertex="1" parent="1">
                    <mxGeometry x="140" y="270" width="60" height="120" as="geometry"/>
                </mxCell>
                <mxCell id="8" value="&lt;font style=&quot;font-size: 24px;&quot;&gt;&lt;b&gt;基础服务&lt;/b&gt;&lt;/font&gt;" style="rounded=1;whiteSpace=wrap;html=1;fillColor=#6a00ff;fontColor=#ffffff;strokeColor=#3700CC;" vertex="1" parent="1">
                    <mxGeometry x="140" y="430" width="60" height="180" as="geometry"/>
                </mxCell>
                <mxCell id="9" value="低代码工具" style="rounded=1;whiteSpace=wrap;html=1;fontSize=24;opacity=80;fillColor=#008a00;fontColor=#ffffff;strokeColor=none;" vertex="1" parent="1">
                    <mxGeometry x="325" y="150" width="220" height="60" as="geometry"/>
                </mxCell>
                <mxCell id="10" value="业务数据结构自定义" style="rounded=1;whiteSpace=wrap;html=1;fontSize=24;opacity=80;fillColor=#0050ef;fontColor=#ffffff;strokeColor=#001DBC;" vertex="1" parent="1">
                    <mxGeometry x="310" y="300" width="275" height="60" as="geometry"/>
                </mxCell>
                <mxCell id="11" value="传输协议" style="rounded=1;whiteSpace=wrap;html=1;fontSize=24;opacity=80;fillColor=#6a00ff;fontColor=#ffffff;strokeColor=#3700CC;" vertex="1" parent="1">
                    <mxGeometry x="280" y="480" width="160" height="60" as="geometry"/>
                </mxCell>
                <mxCell id="12" value="字节流映射" style="rounded=1;whiteSpace=wrap;html=1;fontSize=24;opacity=80;fillColor=#6a00ff;fontColor=#ffffff;strokeColor=#3700CC;" vertex="1" parent="1">
                    <mxGeometry x="500" y="480" width="160" height="60" as="geometry"/>
                </mxCell>
            </root>
        </mxGraphModel>
    </diagram>
</mxfile>